<svg xmlns="http://www.w3.org/2000/svg" xml:space="preserve" width="850px" height="850px" version="1.1" style="shape-rendering:geometricPrecision; text-rendering:geometricPrecision; image-rendering:optimizeQuality; fill-rule:evenodd; clip-rule:evenodd" viewBox="0 0 850 850" xmlns:xlink="http://www.w3.org/1999/xlink" xmlns:xodm="http://www.corel.com/coreldraw/odm/2003">
 <defs>
  <style type="text/css">
   
    .fil0 {fill:black}
    .fil1 {fill:#FDFDFD}
   
  </style>
 </defs>
 <g id="Layer_x0020_1">
  <metadata id="CorelCorpID_0Corel-Layer"></metadata>
  <circle class="fil0" cx="425" cy="425" r="425" id="id_117" style="fill: rgb(255, 255, 255);"></circle>
  <g id="_642566648">
   <g>
    <g>
     <path class="fil1" d="M332.81 574.72c-33.7,0 -59.8,-15.5 -76.7,-36.8 -20.5,-25.9 -29.6,-62 -25,-99.1 5,-39.89 25.5,-76.19 57.6,-102.29 2,-1.6 4.6,-2 7,-1.1 2.4,0.9 4,3.1 4.3,5.6 2.6,19.8 11.4,33.4 18.4,41.3 5.3,-43.9 20.8,-77.4 47.3,-102.1 25.4,-23.7 60.1,-39 109.1,-48.1 109,-21.4 161.5,-61.3 162,-61.7 1.6,-1.3 3.7,-1.7 5.7,-1.3 2,0.4 3.7,1.7 4.7,3.5 16.7,30.4 22.4,67.1 16.4,106.1 -4.5,29.29 -13.8,49.39 -14.21,50.29 -18.1,38.4 -55.2,65.7 -107.29,79.2 -23.21,6 -44.4,8 -58.01,8.6 11,8.3 29,15.3 40.8,18.5 2,0.5 3.6,1.9 4.5,3.8 0.9,1.9 0.9,4 0.11,5.9 -24.41,54.4 -69.6,60.4 -118.9,62.4 14.8,8.3 26.7,10.9 26.9,10.9 2.7,0.6 4.8,2.6 5.4,5.3 0.6,2.7 -0.4,5.4 -2.5,7.1 -41.2,31.6 -77.4,44 -107.6,44zm-44.2 -219.39c-24.2,23 -39.5,52.9 -43.6,85.29 -4.2,33.3 3.9,65.6 22.1,88.6 16,20.2 38.1,31.1 64,31.5 27.1,0.4 58,-11 89.8,-33.2 -9.6,-3.7 -23.1,-10.3 -36.2,-21.1 -2.2,-1.9 -3.1,-4.9 -2.2,-7.6 0.9,-2.8 3.49,-4.6 6.4,-4.7 2.6,-0.1 5.1,-0.2 7.6,-0.3 51.59,-1.7 92.99,-3.1 116.69,-47.4 -14.4,-4.7 -42.6,-16 -50.5,-33.5 -1,-2.2 -0.8,-4.8 0.6,-6.8 1.4,-1.99 3.7,-3.19 6.1,-3.1 0.3,0 32.7,1.1 69.6,-8.5 48.5,-12.6 81.4,-36.6 97.8,-71.5 0.11,-0.19 9,-19.5 13.1,-46.9 3.5,-23.3 4.1,-57.1 -11.3,-89.8 -17.9,11.7 -70.2,41.71 -161.19,59.6 -96.6,17.91 -140.3,63.3 -146.3,151.61 -0.2,2.5 -1.6,4.69 -3.9,5.8 -2.2,1.1 -4.9,1 -7,-0.4 -1,-0.71 -23.1,-15.51 -31.6,-47.6z" id="id_118" style="fill: rgb(5, 5, 5);"></path>
    </g>
    <g>
     <path class="fil1" d="M191.11 681.02c-0.9,0 -1.7,-0.2 -2.6,-0.5 -3.6,-1.4 -5.4,-5.5 -3.9,-9.1 17.3,-43.8 46.8,-86.6 87.6,-127.4 2.7,-2.7 7.2,-2.7 9.9,0 2.7,2.7 2.7,7.2 0,9.9 -39.4,39.4 -67.8,80.7 -84.4,122.6 -1.2,2.8 -3.8,4.5 -6.6,4.5z" id="id_119" style="fill: rgb(0, 0, 0);"></path>
    </g>
    <g>
     <path class="fil1" d="M559.1 362.02c-2.29,0 -4.5,-1.09 -5.8,-3.1 -2.1,-3.2 -1.3,-7.6 1.9,-9.7 36.8,-24.5 51.41,-57 57.11,-79.9 0.9,-3.79 4.69,-6 8.5,-5.1 3.8,0.9 6,4.7 5.1,8.51 -6.3,25.3 -22.4,61.09 -62.9,88.09 -1.21,0.8 -2.6,1.2 -3.91,1.2z" id="id_120" style="fill: rgb(214, 178, 70);"></path>
    </g>
   </g>
  </g>
 </g>
</svg>